<svg xmlns="http://www.w3.org/2000/svg" viewBox="0 0 146.06 126.24" width="146" height="126" role="img"><title>team icon</title>
<path d="M29.40 54.71C39.27 54.71 47.29 46.68 47.29 36.81C47.29 26.94 39.27 18.91 29.40 18.91C19.53 18.91 11.50 26.94 11.50 36.81C11.50 46.68 19.53 54.71 29.40 54.71M29.40 27.91C34.30 27.91 38.29 31.90 38.29 36.81C38.29 41.72 34.30 45.71 29.40 45.71C24.49 45.71 20.50 41.72 20.50 36.81C20.50 31.90 24.49 27.91 29.40 27.91" fill="currentColor"/>
<path d="M2.00 79.62L2.00 124.23L11.00 124.23L11.00 79.62C11.00 75.79 13.73 72.68 17.10 72.68L43.21 72.68L43.21 63.68L17.10 63.68C8.77 63.68 2.00 70.83 2.00 79.62" fill="currentColor"/>
<path d="M116.66 54.71C126.53 54.71 134.56 46.68 134.56 36.81C134.56 26.94 126.53 18.91 116.66 18.91C106.79 18.91 98.76 26.94 98.76 36.81C98.76 46.68 106.79 54.71 116.66 54.71M116.66 27.91C121.56 27.91 125.56 31.90 125.56 36.81C125.56 41.72 121.56 45.71 116.66 45.71C111.75 45.71 107.76 41.72 107.76 36.81C107.76 31.90 111.75 27.91 116.66 27.91" fill="currentColor"/>
<path d="M128.96 63.68L102.83 63.68L102.83 63.50C102.83 55.11 96.59 48.24 88.75 47.76L88.75 47.71L58.32 47.71C50.00 47.71 43.23 54.86 43.23 63.65L52.23 63.65C52.23 59.82 54.96 56.71 58.32 56.71L87.87 56.71C91.10 56.71 93.83 59.82 93.83 63.50L93.83 124.24L102.83 124.24L102.83 72.68L128.96 72.68C132.32 72.68 135.06 75.79 135.06 79.62L135.06 124.23L144.06 124.23L144.06 79.62C144.06 70.83 137.28 63.68 128.96 63.68" fill="currentColor"/>
<path d="M72.37 37.80C82.24 37.80 90.27 29.77 90.27 19.90C90.27 10.03 82.24 2.00 72.37 2.00C62.50 2.00 54.47 10.03 54.47 19.90C54.47 29.77 62.50 37.80 72.37 37.80M72.37 11.00C77.28 11.00 81.27 14.99 81.27 19.90C81.27 24.80 77.28 28.80 72.37 28.80C67.47 28.80 63.47 24.80 63.47 19.90C63.47 14.99 67.47 11.00 72.37 11.00" fill="currentColor"/>
<path d="M43.23 72.69V124.24H52.23V72.69Z" fill="currentColor"/>
</svg>
