<svg xmlns="http://www.w3.org/2000/svg" viewBox="0 0 40 40" fill="currentColor"><path fill-rule="nonzero" d="M30.433 27.206a1.15 1.15 0 0 1-1.152-1.145 1.15 1.15 0 0 1 1.152-1.145 1.15 1.15 0 0 1 1.153 1.145 1.15 1.15 0 0 1-1.153 1.145ZM20 33.099a1.15 1.15 0 0 1-1.153-1.145A1.15 1.15 0 0 1 20 30.81a1.15 1.15 0 0 1 1.153 1.145A1.15 1.15 0 0 1 20 33.1ZM9.567 27.206a1.15 1.15 0 0 1-1.153-1.145 1.15 1.15 0 0 1 1.153-1.145 1.15 1.15 0 0 1 1.152 1.145 1.15 1.15 0 0 1-1.152 1.145Zm-1.153-13.2a1.15 1.15 0 0 1 1.153-1.144 1.15 1.15 0 0 1 1.152 1.145 1.15 1.15 0 0 1-1.152 1.145 1.15 1.15 0 0 1-1.153-1.145ZM20 6.902c.636 0 1.153.504 1.153 1.123 0 .62-.517 1.123-1.153 1.123s-1.153-.504-1.153-1.123c0-.62.517-1.123 1.153-1.123Zm10.433 5.96a1.15 1.15 0 0 1 1.153 1.146 1.15 1.15 0 0 1-1.153 1.145 1.15 1.15 0 0 1-1.152-1.145 1.15 1.15 0 0 1 1.152-1.145Zm-13.215 8.734v-3.19L20 16.809l2.782 1.596v3.19L20 23.191l-2.782-1.596Zm11.608-5v6.877a3.07 3.07 0 0 0-.373.267l-3.757-2.154v-3.27l3.502-2.23c.185.197.397.368.628.51ZM20 11.049c.52 0 1.008-.129 1.437-.354l5.934 3.402c.002.083.006.166.015.248l-3.722 2.371-3.664-2.1-3.73 2.138-3.702-2.123c.037-.173.055-.352.06-.534l5.934-3.402c.43.225.919.354 1.438.354Zm-8.393 5.226 3.697 2.12v3.201l-3.728 2.17a3.079 3.079 0 0 0-.402-.293v-6.876c.154-.095.299-.202.433-.322ZM20 28.909c-.528 0-1.026.133-1.46.368l-5.916-3.393a3.016 3.016 0 0 0-.066-.487l3.703-2.156L20 25.386l3.749-2.15 3.703 2.124c-.04.17-.066.345-.076.524l-5.916 3.393a3.064 3.064 0 0 0-1.46-.368Zm10.74-5.879v-5.993c1.548-.153 2.76-1.454 2.76-3.03 0-1.68-1.376-3.046-3.067-3.046-1.023 0-1.929.502-2.486 1.27l-5.158-2.957c.177-.382.278-.804.278-1.25C23.067 6.357 21.69 5 20 5c-1.691 0-3.067 1.357-3.067 3.024 0 .446.101.868.278 1.25l-5.158 2.957a3.068 3.068 0 0 0-2.486-1.27c-1.691 0-3.067 1.366-3.067 3.046 0 1.576 1.212 2.877 2.76 3.03v5.993c-1.548.154-2.76 1.454-2.76 3.031 0 1.68 1.376 3.046 3.067 3.046a3.07 3.07 0 0 0 2.53-1.33l5.109 2.93a3.003 3.003 0 0 0-.273 1.247C16.933 33.634 18.31 35 20 35c1.691 0 3.067-1.366 3.067-3.046 0-.445-.1-.866-.273-1.248l5.108-2.929a3.071 3.071 0 0 0 2.531 1.33c1.691 0 3.067-1.367 3.067-3.046 0-1.577-1.212-2.877-2.76-3.03Z"/></svg>
